<svg xmlns="http://www.w3.org/2000/svg" xmlns:xlink="http://www.w3.org/1999/xlink" viewBox="0 0 1080 1080" style="background: white;"><defs><style>.cls-1,.cls-23{fill:none;}.cls-2{isolation:isolate;}.cls-3{clip-path:url(#clip-path);}.cls-4{fill:#4d4d4d;}.cls-12,.cls-14,.cls-20,.cls-28,.cls-30,.cls-33,.cls-5,.cls-7,.cls-9{fill:#fff;}.cls-12,.cls-13,.cls-16,.cls-17,.cls-19,.cls-20,.cls-21,.cls-23,.cls-24,.cls-25,.cls-27,.cls-28,.cls-29,.cls-31,.cls-32,.cls-33,.cls-34,.cls-5,.cls-7,.cls-9{stroke:#010101;}.cls-5{stroke-width:0.46px;}.cls-6{fill:#ccc;}.cls-7{stroke-width:0.28px;}.cls-8{fill:#1a1a1a;}.cls-11,.cls-14,.cls-15,.cls-30,.cls-9{stroke-linecap:round;}.cls-11,.cls-12,.cls-14,.cls-15,.cls-31,.cls-9{stroke-linejoin:round;}.cls-9{stroke-width:0.25px;}.cls-10{fill:#010101;}.cls-11{fill:#c5c5c4;}.cls-11,.cls-15{stroke:#1a181b;}.cls-11,.cls-12,.cls-13,.cls-14,.cls-15,.cls-16,.cls-17,.cls-19,.cls-20,.cls-21,.cls-23,.cls-24,.cls-25,.cls-27,.cls-28,.cls-29,.cls-30,.cls-31,.cls-32,.cls-33,.cls-34{stroke-width:0.91px;}.cls-11,.cls-22{mix-blend-mode:multiply;}.cls-13{fill:#bfbfbf;}.cls-13,.cls-17,.cls-19,.cls-20,.cls-21,.cls-25,.cls-30,.cls-33,.cls-34{stroke-linejoin:bevel;}.cls-14,.cls-30{stroke:#000;}.cls-15,.cls-32{fill:gray;}.cls-16,.cls-17,.cls-31{fill:#595959;}.cls-18{fill:#121212;}.cls-19,.cls-29{fill:#e6e6e6;}.cls-21{fill:#dbdddd;}.cls-22,.cls-24{fill:#262626;}.cls-22{opacity:0.9;}.cls-25{fill:#999;}.cls-26{opacity:0.95;}.cls-27{fill:#333;}.cls-33{stroke-linecap:square;}.cls-34{fill:#777c7e;}</style><clipPath id="clip-path"><path class="cls-1" d="M713.56,152.22V488.61l-357.06.91c-8.77.42-18.15,6.29-19.77,19.44L319.48,619.74s-1.79,9.09,1.09,14.16c3.42,6,7.07,11.26,18.72,12.12l15.3.05,8.76-.08a20,20,0,0,0,14.14-7.26l1.88-2.66,8.52-16.65c5.48-10.82,11.72-17.67,27.18-17.87,36.65-.48,127.72-.28,127.72-.28l-47.11,83.85-36.61-8.36L213.89,733.21v-581Z"/></clipPath></defs><title>Logo Ibad</title><g class="cls-2"><g id="Layer_1" data-name="Layer 1"><g class="cls-3"><path class="cls-4" d="M310.48,196.16a1.33,1.33,0,0,1-1.15,1.46h0a1.33,1.33,0,0,1-1.14-1.46V176.8a1.32,1.32,0,0,1,1.14-1.45h0a1.32,1.32,0,0,1,1.15,1.45Z"/><path class="cls-5" d="M309.33,194.45a17.52,17.52,0,0,0-17.6,16h35.21A17.53,17.53,0,0,0,309.33,194.45Z"/><path class="cls-6" d="M308.4,194.89s-12.37-.22-16.21,13.74c0,0,4.5-7.71,13.29-5.14C305.48,203.49,302.38,199,308.4,194.89Z"/><path class="cls-7" d="M312.63,187.41a3.29,3.29,0,1,1-3.28-3.39A3.32,3.32,0,0,1,312.63,187.41Z"/><path class="cls-8" d="M312.87,170.15a6.15,6.15,0,0,1-.94,3.36,5.54,5.54,0,0,0,1.51-4c0-2.66-1.55-4.82-3.51-4.82a2.89,2.89,0,0,0-1.95.83,2.73,2.73,0,0,1,1.3-.33C311.27,165.22,312.87,167.43,312.87,170.15Z"/><path class="cls-8" d="M309.87,180.59c-3.25,0-5.87-3.61-5.87-8.08,0-3.29,1.42-6.12,3.49-7.38-2.51,1-4.33,4.12-4.33,7.76,0,4.5,2.76,8.15,6.17,8.15a5.52,5.52,0,0,0,4.44-2.5A5,5,0,0,1,309.87,180.59Z"/><path class="cls-9" d="M310,180.7c2.3,0,4.29-1.74,5.32-4.27a11.93,11.93,0,0,0,.64-3.92,12.1,12.1,0,0,0-.64-3.94c-1-2.52-3-4.24-5.32-4.24s-4.27,1.72-5.31,4.24a12.1,12.1,0,0,0-.63,3.94,11.93,11.93,0,0,0,.63,3.92C305.7,179,307.68,180.7,310,180.7Zm-.08-16H310c2,0,3.55,2.13,3.55,4.78s-1.58,4.8-3.55,4.8h-.06c-2,0-3.57-2.14-3.57-4.8S307.94,164.7,309.89,164.7Z"/><polygon class="cls-10" points="332.24 228.86 284.74 221.78 284.74 714.46 332.24 703.92 332.24 228.86"/><polygon class="cls-11" points="324.55 249.72 296.51 245.15 296.51 711.37 324.55 705.12 324.55 249.72"/><polygon class="cls-12" points="698.13 727.04 698.08 438.69 683.64 415.33 682.66 715.36 682.84 723.46 698.13 727.04"/><polygon class="cls-13" points="674.03 648.29 683.84 650.34 683.46 415.33 667.54 411.31 667.54 720.27 674.03 721.7 674.03 648.29"/><polygon class="cls-14" points="285.52 378.15 225.18 403.73 225.18 727.18 286.58 713.55 285.52 378.15"/><polygon class="cls-15" points="355.93 348.61 355.93 641.9 365.44 637.56 386.35 641.4 386.07 357.76 355.93 348.61"/><polygon class="cls-16" points="355.93 348.61 355.93 641.9 365.44 637.56 386.35 641.4 386.07 357.76 355.93 348.61"/><polygon class="cls-13" points="386.56 358.9 393.38 336.74 396.56 655.03 386.56 650.27 386.56 358.9"/><polygon class="cls-17" points="425.37 322.74 425.37 641.91 435.41 637.91 455.51 638.91 455.51 332.68 425.37 322.74"/><polygon class="cls-13" points="455.51 332.36 465.62 307.51 464.94 643.72 455.51 638.75 455.51 332.36"/><polygon class="cls-18" points="464.94 676.19 464.94 638.42 456.72 633.16 456.84 674.23 464.94 676.19"/><polygon class="cls-19" points="528.82 304.29 498.39 295.63 496.86 682.7 528.44 689.56 528.82 304.29"/><polygon class="cls-13" points="545.47 316.11 574.13 316.65 574.13 645.1 553.69 645.1 545.47 645.1 545.47 316.11"/><polygon class="cls-20" points="498.39 295.63 465.62 307.51 464.2 675.53 498.76 683.09 498.39 295.63"/><polygon class="cls-13" points="637.38 639.9 649.26 640.8 649.1 370.38 630.07 362.33 630.07 712.18 637.38 713.67 637.38 639.9"/><polygon class="cls-20" points="630.07 347.85 606.19 325.14 606.19 706.91 630.07 712.18 630.07 347.85"/><polygon class="cls-12" points="667.54 392.08 649.26 370.48 649.26 641.49 661.14 643.32 661.14 718.83 667.54 720.27 667.54 392.08"/><polygon class="cls-21" points="606.19 325.14 574.13 316.65 574.13 636.4 577.77 637.97 577.77 700.53 606.19 706.91 606.19 325.14"/><polygon class="cls-22" points="386.76 638.53 393.38 631.62 393.38 608.1 387.07 602.54 358.67 611.78 358.67 629.2 386.76 638.53"/><polygon class="cls-23" points="386.76 638.53 393.38 631.62 393.38 608.1 387.07 602.54 358.67 611.78 358.67 629.2 386.76 638.53"/><polygon class="cls-22" points="386.81 590.74 393.38 585.5 393.38 560.81 386.51 554.5 358.67 565.84 358.67 583.26 386.81 590.74"/><polygon class="cls-23" points="386.81 590.74 393.38 585.5 393.38 560.81 386.51 554.5 358.67 565.84 358.67 583.26 386.81 590.74"/><polygon class="cls-22" points="385.88 545.97 393.38 538.64 393.38 515.79 385.56 510.01 358.67 518.76 358.67 537.87 385.88 545.97"/><polygon class="cls-23" points="385.88 545.97 393.38 538.64 393.38 515.79 385.56 510.01 358.67 518.76 358.67 537.87 385.88 545.97"/><polygon class="cls-22" points="385.88 501.2 393.38 491.88 393.38 470.6 386.2 467.08 358.67 475.64 358.67 493.74 385.88 501.2"/><polygon class="cls-23" points="385.88 501.2 393.38 491.88 393.38 470.6 386.2 467.08 358.67 475.64 358.67 493.74 385.88 501.2"/><polygon class="cls-22" points="385.88 458.24 393.38 448.97 393.38 427.42 384.94 425.36 358.67 433.62 358.67 450.56 385.88 458.24"/><polygon class="cls-23" points="385.88 458.24 393.38 448.97 393.38 427.42 384.94 425.36 358.67 433.62 358.67 450.56 385.88 458.24"/><polygon class="cls-22" points="386.51 415.33 393.38 404.94 393.38 383.07 386.81 382.43 358.67 393.21 358.67 410.33 386.51 415.33"/><polygon class="cls-23" points="386.51 415.33 393.38 404.94 393.38 383.07 386.81 382.43 358.67 393.21 358.67 410.33 386.51 415.33"/><polygon class="cls-24" points="630.48 390.47 630.48 420.77 646.21 414.82 646.21 397.8 630.48 390.47"/><polygon class="cls-24" points="630.48 432.74 630.48 462.07 646.21 456.27 646.21 439.71 630.48 432.74"/><polygon class="cls-24" points="630.48 475.87 630.48 506.57 646.21 500.21 646.21 482.58 630.48 475.87"/><polygon class="cls-24" points="630.48 517.16 630.48 546.58 646.21 540.99 646.21 523.73 630.48 517.16"/><polygon class="cls-24" points="630.48 562.14 630.48 591.53 646.21 585.57 646.21 568.31 630.48 562.14"/><polygon class="cls-24" points="630.48 604.65 630.48 634.28 646.21 629.61 646.21 611.02 630.48 604.65"/><polygon class="cls-25" points="577.77 644.43 577.77 635.98 556.45 632.22 556.58 695.71 577.77 700.53 577.77 644.43"/><polygon class="cls-8" points="535.41 635.21 529.62 636.13 529.62 689.82 535.41 691.1 535.41 635.21"/><polygon class="cls-18" points="637.84 641.61 632.06 642.42 632.06 712.18 637.84 713.26 637.84 641.61"/><polygon class="cls-18" points="674.35 648.01 667.49 648.72 667.84 719.84 674.35 721.25 674.35 648.01"/><polygon class="cls-25" points="324.55 249.74 296.51 245.15 296.51 711.37 324.55 705.12 324.55 249.74"/><g class="cls-26"><polygon points="254.69 466.48 264.56 456.21 264.56 438.09 254.69 434.2 242.63 444.77 242.63 461.56 254.69 466.48"/><polygon points="254.69 507.58 264.56 498 264.56 479.21 254.69 475.3 242.63 485.87 242.63 503.68 254.69 507.58"/><polygon points="254.69 550.54 264.56 540.46 264.56 522.14 254.69 518.26 242.63 528.82 242.63 546.63 254.69 550.54"/><polygon points="254.69 591.66 264.56 580.57 264.56 564.59 254.69 559.37 242.63 569.94 242.63 586.88 254.69 591.66"/><polygon points="254.69 632.77 264.56 622.59 264.56 605.69 254.69 600.5 242.63 609.46 242.63 627.18 254.69 632.77"/><polygon points="254.69 673.9 264.56 663.26 264.56 648.2 254.69 641.61 242.63 651.96 242.63 666.61 254.69 673.9"/><polygon points="264.56 703 264.56 687.47 254.69 681.8 242.63 691.25 242.63 706.83 254.69 714.1 264.56 703"/></g><polygon class="cls-27" points="254.69 466.48 264.56 456.21 264.56 438.09 254.69 434.2 242.63 444.77 242.63 461.56 254.69 466.48"/><polygon class="cls-27" points="254.69 507.58 264.56 498 264.56 479.21 254.69 475.3 242.63 485.87 242.63 503.68 254.69 507.58"/><polygon class="cls-27" points="254.69 550.54 264.56 540.46 264.56 522.14 254.69 518.26 242.63 528.82 242.63 546.63 254.69 550.54"/><polygon class="cls-27" points="254.69 591.66 264.56 580.57 264.56 564.59 254.69 559.37 242.63 569.94 242.63 586.88 254.69 591.66"/><polygon class="cls-27" points="254.69 632.77 264.56 622.59 264.56 605.69 254.69 600.5 242.63 609.46 242.63 627.18 254.69 632.77"/><polygon class="cls-27" points="254.69 673.9 264.56 663.26 264.56 648.2 254.69 641.61 242.63 651.96 242.63 666.61 254.69 673.9"/><polygon class="cls-27" points="264.56 703 264.56 687.47 254.69 681.8 242.63 691.25 242.63 706.83 254.69 714.1 264.56 703"/><polygon class="cls-28" points="351.83 644.66 355.93 641.9 355.93 348.61 328.52 360.48 328.52 704.26 352.37 698.97 351.83 644.66"/><polygon class="cls-22" points="455.16 631.86 461.91 620.37 461.91 602.27 455.5 593.36 428.56 603.23 428.56 621.27 455.16 631.86"/><polygon class="cls-23" points="455.16 631.86 461.91 620.37 461.91 602.27 455.5 593.36 428.56 603.23 428.56 621.27 455.16 631.86"/><polygon class="cls-22" points="455.16 581.01 461.91 571.97 461.91 552.11 454.89 542.92 428.56 555 428.56 573.08 455.16 581.01"/><polygon class="cls-23" points="455.16 581.01 461.91 571.97 461.91 552.11 454.89 542.92 428.56 555 428.56 573.08 455.16 581.01"/><polygon class="cls-22" points="455.25 532.2 461.91 520.78 461.91 503.84 455.14 493.92 428.56 504.72 428.56 523.41 455.25 532.2"/><polygon class="cls-23" points="455.25 532.2 461.91 520.78 461.91 503.84 455.14 493.92 428.56 504.72 428.56 523.41 455.25 532.2"/><polygon class="cls-22" points="455.64 485.2 461.91 473.26 461.91 456.84 455.25 449.41 428.56 458.49 428.56 477.27 455.64 485.2"/><polygon class="cls-23" points="455.64 485.2 461.91 473.26 461.91 456.84 455.25 449.41 428.56 458.49 428.56 477.27 455.64 485.2"/><polygon class="cls-22" points="455.64 438.39 461.91 427.7 461.91 407.45 454.89 403.15 428.56 412.52 428.56 430.11 455.64 438.39"/><polygon class="cls-23" points="455.64 438.39 461.91 427.7 461.91 407.45 454.89 403.15 428.56 412.52 428.56 430.11 455.64 438.39"/><polygon class="cls-22" points="455.64 390.25 461.91 377.43 461.91 360.7 455.16 355.01 428.56 366.47 428.56 384.25 455.64 390.25"/><polygon class="cls-23" points="455.64 390.25 461.91 377.43 461.91 360.7 455.16 355.01 428.56 366.47 428.56 384.25 455.64 390.25"/><polygon class="cls-29" points="661.14 642.66 637.38 639.4 637.38 713.67 661.14 718.83 661.14 642.66"/><polygon class="cls-18" points="393.69 645.25 384.35 641.01 384.17 692.35 393.69 690.23 393.69 645.25"/><polygon class="cls-20" points="419.1 644.94 426.13 643.88 425.72 322.6 393.38 336.88 393.38 689.88 419.1 684.18 419.1 644.94"/><polygon class="cls-30" points="363.15 636.64 349.99 643.5 349.99 699.52 363.15 696.59 363.15 636.64"/><polygon class="cls-20" points="430.45 631.93 417.48 638.83 417.48 684.54 430.58 681.31 430.45 631.93"/><polygon class="cls-31" points="535.79 634.96 548.25 633.52 548.25 316.11 528.82 304.29 528.82 689.67 536.24 691.27 535.79 634.96"/><polygon class="cls-22" points="547.76 384.25 570.93 377.28 570.93 358.59 547.83 346.59 531.85 349.26 531.85 372.38 547.76 384.25"/><polygon class="cls-23" points="547.76 384.25 570.93 377.28 570.93 358.59 547.83 346.59 531.85 349.26 531.85 372.38 547.76 384.25"/><polygon class="cls-22" points="548.47 479 570.93 472.23 570.93 454.3 547.76 445.48 531.85 451.22 531.85 468.89 548.47 479"/><polygon class="cls-23" points="548.47 479 570.93 472.23 570.93 454.3 547.76 445.48 531.85 451.22 531.85 468.89 548.47 479"/><polygon class="cls-22" points="547.76 528.62 570.93 520.44 570.93 501.7 548.69 491.14 531.85 499.56 531.85 518.52 547.76 528.62"/><polygon class="cls-23" points="547.76 528.62 570.93 520.44 570.93 501.7 548.69 491.14 531.85 499.56 531.85 518.52 547.76 528.62"/><polygon class="cls-22" points="548.68 577.67 570.75 570.45 570.93 550.35 548.38 541.4 531.85 550.71 531.85 568.45 548.68 577.67"/><polygon class="cls-23" points="548.68 577.67 570.75 570.45 570.93 550.35 548.38 541.4 531.85 550.71 531.85 568.45 548.68 577.67"/><polygon class="cls-22" points="548.69 630.96 570.93 620.61 570.93 600.84 548.07 590.44 531.85 600.55 531.85 620.37 548.69 630.96"/><polygon class="cls-23" points="548.69 630.96 570.93 620.61 570.93 600.84 548.07 590.44 531.85 600.55 531.85 620.37 548.69 630.96"/><polygon class="cls-22" points="548.72 432.66 570.93 422.72 570.93 402.49 547.76 395.21 531.85 400.78 531.85 420.84 548.72 432.66"/><polygon class="cls-23" points="548.72 432.66 570.93 422.72 570.93 402.49 547.76 395.21 531.85 400.78 531.85 420.84 548.72 432.66"/><polygon class="cls-18" points="536.59 635.91 528.85 638.62 528.96 689.32 536.59 690.95 536.59 635.91"/><polygon class="cls-20" points="557.21 632.22 532.68 635.11 532.68 690.5 557.21 695.86 557.21 632.22"/><polygon class="cls-25" points="459.58 631.93 429.88 631.93 429.88 681.48 459.58 674.21 459.58 631.93"/><polygon class="cls-20" points="296.29 245.45 284.64 265.03 284.64 713.98 296.47 711.37 296.29 245.45"/><polygon class="cls-29" points="692.43 650.97 672.1 646.92 672.29 721.3 692.43 725.71 692.43 650.97"/><polygon class="cls-25" points="386.54 639.32 363.02 636.64 363.02 696.61 386.54 691.4 386.54 639.32"/><line class="cls-32" x1="242.69" y1="445.17" x2="264.48" y2="438.5"/><line class="cls-32" x1="242.74" y1="461.25" x2="264.45" y2="455.97"/><line class="cls-32" x1="254.69" y1="441.32" x2="254.69" y2="458.64"/><line class="cls-23" x1="242.77" y1="486.23" x2="264.56" y2="479.56"/><line class="cls-23" x1="242.63" y1="503.41" x2="264.45" y2="497.75"/><line class="cls-23" x1="254.69" y1="482.51" x2="254.69" y2="500.35"/><line class="cls-23" x1="242.77" y1="529.02" x2="264.3" y2="522.33"/><line class="cls-23" x1="242.69" y1="546.44" x2="264.39" y2="540.32"/><line class="cls-23" x1="254.69" y1="525.29" x2="254.69" y2="543.1"/><line class="cls-23" x1="242.66" y1="570.25" x2="264.53" y2="564.75"/><line class="cls-23" x1="242.66" y1="586.55" x2="264.48" y2="580.08"/><line class="cls-23" x1="254.76" y1="567.74" x2="254.76" y2="582.88"/><line class="cls-23" x1="242.59" y1="609.8" x2="264.39" y2="606.24"/><line class="cls-23" x1="242.66" y1="626.86" x2="264.61" y2="622.29"/><line class="cls-23" x1="254.69" y1="608.41" x2="254.69" y2="624.77"/><line class="cls-23" x1="242.61" y1="652.25" x2="264.39" y2="648.53"/><line class="cls-23" x1="242.66" y1="666.31" x2="264.53" y2="662.95"/><line class="cls-23" x1="254.69" y1="650.5" x2="254.69" y2="664.34"/><line class="cls-23" x1="242.61" y1="691.54" x2="264.39" y2="687.85"/><line class="cls-23" x1="242.69" y1="706.71" x2="264.51" y2="702.85"/><line class="cls-23" x1="254.69" y1="689.82" x2="254.69" y2="704.56"/><polyline class="cls-23" points="358.64 493.15 386.09 493.15 393.13 488.58"/><polyline class="cls-23" points="358.64 476.17 386.61 476.17 393.13 474.3"/><line class="cls-23" x1="372.25" y1="476.3" x2="372.25" y2="492.93"/><line class="cls-23" x1="390.6" y1="475.07" x2="390.6" y2="489.96"/><polyline class="cls-23" points="359.11 537.46 385.93 537.46 393.4 535.28"/><polyline class="cls-23" points="359.11 519.31 386.24 519.31 393.02 519.26"/><line class="cls-23" x1="371.91" y1="519.42" x2="371.91" y2="537.42"/><line class="cls-23" x1="390.48" y1="519.5" x2="390.48" y2="536.17"/><polyline class="cls-23" points="358.78 582.79 386.24 582.8 393.26 580.39"/><polyline class="cls-23" points="358.94 566.31 386.61 566.33 393.02 567.15"/><line class="cls-23" x1="372.25" y1="566.45" x2="372.25" y2="582.59"/><line class="cls-23" x1="390.73" y1="567.01" x2="390.73" y2="581.27"/><line class="cls-23" x1="441.87" y1="459.41" x2="441.87" y2="476.63"/><line class="cls-23" x1="458.85" y1="457.96" x2="458.85" y2="474.43"/><polyline class="cls-23" points="429.14 459.35 454.95 459.35 461.91 456.84"/><polyline class="cls-23" points="429.14 476.63 455.14 476.63 461.91 473.26"/><line class="cls-23" x1="441.87" y1="505.66" x2="441.87" y2="522.32"/><polyline class="cls-23" points="428.64 505.51 454.95 505.51 462 504.31"/><polyline class="cls-23" points="429.14 522.66 455.46 522.66 461.97 519.86"/><line class="cls-23" x1="458.68" y1="504.67" x2="458.68" y2="521.11"/><line class="cls-23" x1="441.87" y1="555.75" x2="441.87" y2="572.06"/><line class="cls-23" x1="458.68" y1="554.25" x2="458.68" y2="571.33"/><polyline class="cls-23" points="428.75 555.75 455.51 555.75 461.88 552.74"/><polyline class="cls-23" points="428.51 572.24 455.34 572.24 461.49 571.08"/><line class="cls-23" x1="441.87" y1="604" x2="441.87" y2="620.29"/><line class="cls-23" x1="458.68" y1="603.28" x2="458.68" y2="619.73"/><polyline class="cls-23" points="428.51 603.82 455.29 603.82 461.88 602.92"/><polyline class="cls-23" points="428.75 620.78 455.14 620.78 461.49 619.07"/><line class="cls-23" x1="540.36" y1="452.88" x2="540.36" y2="470.33"/><line class="cls-23" x1="558.01" y1="454.91" x2="558.01" y2="471.37"/><polyline class="cls-23" points="531.66 451.51 548.47 454.38 570.38 454.91"/><polyline class="cls-23" points="531.85 468.84 548.59 472.12 570.38 471.7"/><line class="cls-23" x1="540.36" y1="502.28" x2="540.31" y2="518.73"/><line class="cls-23" x1="558.01" y1="503.47" x2="558.01" y2="519.42"/><polyline class="cls-23" points="531.66 500.15 548.86 503.63 570.61 502.19"/><polyline class="cls-23" points="532.71 518.74 549 518.74 570.51 520.14"/><line class="cls-23" x1="540.36" y1="600.97" x2="540.36" y2="619.17"/><line class="cls-23" x1="558.01" y1="600.44" x2="558.01" y2="619.6"/><polyline class="cls-23" points="532.04 601.24 549 599.75 570.61 600.76"/><polyline class="cls-23" points="532.04 620.1 549 618.75 570.51 620.37"/><line class="cls-23" x1="540.36" y1="551.45" x2="540.36" y2="567.99"/><line class="cls-23" x1="558.01" y1="551.68" x2="558.01" y2="569.18"/><polyline class="cls-23" points="531.85 550.71 548.86 552.35 570.93 550.35"/><polyline class="cls-23" points="532.16 568.4 548.97 567.76 570.75 570.45"/><line class="cls-23" x1="645.95" y1="398.54" x2="630.67" y2="398.54"/><line class="cls-23" x1="645.95" y1="414.48" x2="630.67" y2="414.48"/><line class="cls-23" x1="638.12" y1="398.72" x2="638.12" y2="414.48"/><line class="cls-23" x1="645.95" y1="439.96" x2="630.67" y2="439.96"/><line class="cls-23" x1="645.95" y1="455.93" x2="630.67" y2="455.93"/><line class="cls-23" x1="638.12" y1="440.12" x2="638.12" y2="455.93"/><line class="cls-23" x1="645.95" y1="483.77" x2="630.67" y2="483.77"/><line class="cls-23" x1="645.95" y1="499.73" x2="630.67" y2="499.73"/><line class="cls-23" x1="638.12" y1="483.95" x2="638.12" y2="499.73"/><line class="cls-23" x1="645.95" y1="524.01" x2="630.67" y2="524.01"/><line class="cls-23" x1="645.95" y1="539.98" x2="630.67" y2="539.98"/><line class="cls-23" x1="638.12" y1="524.18" x2="638.12" y2="539.98"/><line class="cls-23" x1="645.95" y1="568.34" x2="630.67" y2="568.34"/><line class="cls-23" x1="645.95" y1="585.48" x2="630.67" y2="585.48"/><line class="cls-23" x1="638.12" y1="568.5" x2="638.12" y2="585.48"/><line class="cls-23" x1="645.95" y1="611.44" x2="630.67" y2="611.44"/><line class="cls-23" x1="645.95" y1="628.6" x2="630.67" y2="628.6"/><line class="cls-23" x1="638.12" y1="611.64" x2="638.12" y2="628.6"/><polygon class="cls-24" points="667.83 433.43 667.83 459.15 681.18 454.1 681.18 439.62 667.83 433.43"/><polygon class="cls-24" points="667.83 469.29 667.83 494.18 681.18 489.27 681.18 474.68 667.83 469.29"/><polygon class="cls-24" points="667.83 505.89 667.83 531.97 681.18 526.56 681.18 511.6 667.83 505.89"/><polygon class="cls-24" points="667.83 540.98 667.83 565.95 681.18 561.19 681.18 545.6 667.83 540.98"/><polygon class="cls-24" points="667.83 577.98 667.83 604.12 681.18 599.31 681.18 583.22 667.83 577.98"/><polygon class="cls-24" points="667.83 615.25 667.83 640.39 681.18 636.43 681.18 620.37 667.83 615.25"/><line class="cls-23" x1="681.23" y1="440.1" x2="667.9" y2="440.1"/><line class="cls-23" x1="681.23" y1="453.65" x2="667.9" y2="453.65"/><line class="cls-23" x1="674.41" y1="440.27" x2="674.41" y2="453.65"/><line class="cls-23" x1="681.23" y1="475.29" x2="667.9" y2="475.29"/><line class="cls-23" x1="681.23" y1="488.84" x2="667.9" y2="488.84"/><line class="cls-23" x1="674.41" y1="475.43" x2="674.41" y2="488.84"/><line class="cls-23" x1="681.23" y1="512.46" x2="667.9" y2="512.46"/><line class="cls-23" x1="681.23" y1="526.03" x2="667.9" y2="526.03"/><line class="cls-23" x1="674.41" y1="512.62" x2="674.41" y2="526.03"/><line class="cls-23" x1="681.23" y1="546.65" x2="667.9" y2="546.65"/><line class="cls-23" x1="681.23" y1="560.18" x2="667.9" y2="560.18"/><line class="cls-23" x1="674.41" y1="546.77" x2="674.41" y2="560.18"/><line class="cls-23" x1="681.23" y1="584.26" x2="667.9" y2="584.26"/><line class="cls-23" x1="681.23" y1="598.81" x2="667.9" y2="598.81"/><line class="cls-23" x1="674.41" y1="584.4" x2="674.41" y2="598.81"/><line class="cls-23" x1="681.23" y1="620.86" x2="667.9" y2="620.86"/><line class="cls-23" x1="681.23" y1="635.43" x2="667.9" y2="635.43"/><line class="cls-23" x1="674.41" y1="621" x2="674.41" y2="635.43"/><polyline class="cls-23" points="358.49 628.78 386.27 628.8 393.13 624.45"/><line class="cls-23" x1="358.49" y1="612.15" x2="386.61" y2="612.16"/><line class="cls-23" x1="372.25" y1="612.29" x2="372.25" y2="628.75"/><line class="cls-23" x1="390.73" y1="613.62" x2="390.73" y2="626.02"/><line class="cls-23" x1="386.01" y1="611.97" x2="393.13" y2="614.26"/><polygon class="cls-33" points="297.19 201.55 284.51 220.78 284.51 247 297.26 229.44 297.19 201.55"/><polygon class="cls-34" points="324.66 205.65 324.4 233.49 332.06 246.64 332.06 221.49 324.66 205.65"/><polygon class="cls-25" points="324.69 205.65 297.08 201.69 297.08 229.88 324.69 233.94 324.69 205.65"/><polygon class="cls-34" points="327.25 250.11 327.25 360.62 332.27 358.59 332.27 256.98 327.25 250.11"/><polyline class="cls-23" points="358.94 393.98 386.61 393.98 393.31 390.2"/><polyline class="cls-23" points="359.26 409.6 386.09 409.6 393.13 402.12"/><line class="cls-23" x1="372.25" y1="394.1" x2="372.25" y2="409.48"/><line class="cls-23" x1="390.42" y1="391.93" x2="390.42" y2="404.99"/><line class="cls-23" x1="386.4" y1="449.99" x2="393.13" y2="445.02"/><line class="cls-23" x1="358.78" y1="450" x2="386.09" y2="450.01"/><line class="cls-23" x1="358.78" y1="434.4" x2="386.61" y2="434.41"/><line class="cls-23" x1="372.25" y1="434.54" x2="372.25" y2="449.82"/><line class="cls-23" x1="385.88" y1="434.6" x2="393.02" y2="432.53"/><line class="cls-23" x1="390.48" y1="433.31" x2="390.48" y2="446.67"/><polyline class="cls-23" points="429.05 383.79 455.38 383.79 461.91 377.43"/><polyline class="cls-23" points="429.05 366.83 455.29 366.83 461.86 362.1"/><line class="cls-23" x1="441.87" y1="366.95" x2="441.87" y2="383.6"/><line class="cls-23" x1="458.85" y1="364.25" x2="458.85" y2="380.32"/><line class="cls-23" x1="441.87" y1="412.41" x2="441.87" y2="429.1"/><line class="cls-23" x1="458.85" y1="410.11" x2="458.85" y2="428.22"/><polyline class="cls-23" points="428.64 412.46 455.14 412.46 461.62 407.97"/><polyline class="cls-23" points="428.75 429.43 455.46 429.43 461.91 427.7"/><polyline class="cls-23" points="532.16 349.88 548.1 357.1 570.61 359.18"/><polyline class="cls-23" points="532.16 372.29 547.83 375.45 570.93 376.79"/><line class="cls-23" x1="540.36" y1="354.05" x2="540.36" y2="373.42"/><line class="cls-23" x1="557.68" y1="358.45" x2="557.68" y2="375.76"/><line class="cls-23" x1="540.36" y1="403.62" x2="540.36" y2="421.6"/><line class="cls-23" x1="558.01" y1="404.14" x2="558.01" y2="422.59"/><polyline class="cls-23" points="532.11 401.51 547.83 405.32 570.61 402.72"/><polyline class="cls-23" points="532.16 420.61 548.17 423.67 570.75 422.22"/></g><path d="M262.37,783.26c.14.22.23.41.35.59a1.08,1.08,0,0,1,.12.47c0,.38-.21.59-.67.59a3.85,3.85,0,0,1-2.06-1.09c.48,2,.94,3.93,1.4,5.9a30.64,30.64,0,0,1,.82,4.21v3a13,13,0,0,1-2,4.75,18.26,18.26,0,0,1-5.26,4.4,39.8,39.8,0,0,1-8.74,3.93,30.28,30.28,0,0,1-8.94,1.28c-4.66,0-8-1-10-2.91s-2.91-4.85-2.91-9a34.44,34.44,0,0,1,1-7.41,32.47,32.47,0,0,1,2.16-7c.45-1.09,1.06-1.6,1.78-1.6.29,0,.45.25.45.82a2.27,2.27,0,0,1-.1.78c-1,3.44-1.68,5.85-2,7.19a18.27,18.27,0,0,0-.44,3.93,7.18,7.18,0,0,0,3.78,5.9,15.07,15.07,0,0,0,7.84,1.87,30.72,30.72,0,0,0,10.58-2,26.71,26.71,0,0,0,9.62-5.76c-.29-1.2-.68-2.62-1.23-4.23s-1-3.17-1.55-4.75-.91-3-1.22-4.16a4.18,4.18,0,0,0-.61-1.28,20.62,20.62,0,0,0-1.17-1.76c.59-.88,1.22-1.78,1.84-2.7a17.27,17.27,0,0,0,1.33-2.27c1.65,2.44,2.88,4.23,3.71,5.38S261.87,782.6,262.37,783.26Zm-20.45-1,6,4.23-4,5.39-6.26-4.32Z"/><path d="M261.3,791.06c1.11,0,12.95-.87,13.69-1.11a14.51,14.51,0,0,0,2.39-1.58,15.19,15.19,0,0,0,2.17-2.86,10.92,10.92,0,0,0,1.5-3.66,10.55,10.55,0,0,0,.84.87c.37.3.6.5.74.63a16.67,16.67,0,0,1,4.19-7.42,6.31,6.31,0,0,1,4.13-2.07h.38a7.52,7.52,0,0,1,3.8,1.75,14.36,14.36,0,0,1,2.38,3.27,21.66,21.66,0,0,1,2.1,5,18.26,18.26,0,0,1,.89,5.27v1.65h5.44a55.08,55.08,0,0,0,10.36-.8,36.29,36.29,0,0,0,9.66-3.75c-.91-.73-2-1.64-3.23-2.82a36,36,0,0,0-2.75-2.38,13.06,13.06,0,0,0-3.27-1.72l-.48-.1a1.08,1.08,0,0,0-.33,0h-.34a2.23,2.23,0,0,0-1.64.62,2.9,2.9,0,0,0-.77,1.54,38.78,38.78,0,0,0-5,.25,6.28,6.28,0,0,0-2.82.86v-.58a7.77,7.77,0,0,1,1.78-4.7c1.08-1.41,2-2.18,2.92-2.33a7.61,7.61,0,0,1,2.6-2.3,7.09,7.09,0,0,1,3.29-.73c1.22,0,3,.79,5.39,2.34a62,62,0,0,1,7.91,6.29,21.21,21.21,0,0,0,6.34,3.85,41.25,41.25,0,0,0,7.89,2.23c-.74,1.53-1.3,2.68-1.7,3.42-.88,1.72-1.52,2.92-1.94,3.56a26.25,26.25,0,0,0-4.4-1.45,18.38,18.38,0,0,0-3.84-.45,13.37,13.37,0,0,0-2.59.22,11.56,11.56,0,0,0-2.49.8c-2.07.88-4.78,1.9-8.11,3.09-2.88,1-5.09,1.81-6.65,2.3a22.2,22.2,0,0,1-2.56.27c-1.06.06-2,.1-2.81.1-.54,0-1,0-1.39,0s-.72-.06-1-.08a5.44,5.44,0,0,1-4.44-2.25l-.11.35a4.35,4.35,0,0,1-.61.84,5.28,5.28,0,0,1-1,.72c-2.54-.36-4.4-.66-5.56-.94a20.19,20.19,0,0,1-5.48-2.24,16.67,16.67,0,0,1-4.89-4.84,16.16,16.16,0,0,1-5.63,6.11,10.64,10.64,0,0,1-5.52,1.91H268.6a13.08,13.08,0,0,1-6.67-1.83m34.36-5,.67,0a19.63,19.63,0,0,0-1-3.56c-.44-1-.87-2.08-1.3-3.14a9.21,9.21,0,0,0-1.4-2.33,4.15,4.15,0,0,0-3-1,4.28,4.28,0,0,0-2.09.87,10.66,10.66,0,0,0-3.24,3.45,26.42,26.42,0,0,0,5.63,3.82Q294.27,791.11,296.29,791.1Z"/><path d="M363.86,795.8c-.17.74-1.53,1.59-2,2.73a30.75,30.75,0,0,1-16.05,12.3c-.75.06-1.51.12-2.23.22s-1.27,0-1.92.1a27,27,0,0,0-2.67.43,38,38,0,0,0-4.26.16,25.48,25.48,0,0,0-3.51.65,13.32,13.32,0,0,1-2.36.29c-.39,0-.59-.07-.59-.18s.7-.72,2.09-1.41c7-3,11.78-5.17,14.28-6.39a64.09,64.09,0,0,0,8.26-4.7,68.13,68.13,0,0,0,6.76-5.58,25.68,25.68,0,0,0-1.88-5.14c-1-2.21-2-4.14-2.88-5.72l-2.13-3,3.54-5.81a18.18,18.18,0,0,0,2.48,3.71c.75.88,1.77,2,3.06,3.26a4.61,4.61,0,0,1,.64.71,1.58,1.58,0,0,1,.37.86.61.61,0,0,1-.66.41,2.45,2.45,0,0,1-.64-.1l-1.4-.31a50.3,50.3,0,0,1,2.44,6.86"/><path d="M362.59,790.12c2.14,0,11.48.17,12.12.1a8,8,0,0,0,3.09-1c-.22-1.55-.42-3.13-.65-4.7-.34-2.59-.68-5.37-1-8.3s-.63-5.67-.93-8.22-.58-4.74-.83-6.65-.49-3.79-.74-5.59a8.72,8.72,0,0,0-.15-1.23c0-.18,0-.37,0-.59a38.42,38.42,0,0,0-.64-4.89l4.91-6.38a58.49,58.49,0,0,0,1.72,8.05,42.43,42.43,0,0,0,2.54,7.37c.06.13.09.3.15.44a2,2,0,0,1,0,.41c0,.31-.2.45-.59.45a1.18,1.18,0,0,1-.73-.27c-.45-.22-.75-.43-1-.53l-1-.6a49.87,49.87,0,0,0,.42,6.16c.08.59.31,2.13.66,4.55l1.43,14.73c0,3.71-.08,6.24-.22,7.67A9.47,9.47,0,0,1,379.7,796a5,5,0,0,1-3.1,1.44,25.28,25.28,0,0,1-5.13.51h-1.69a8.37,8.37,0,0,1-5.92-2.15"/><path d="M392.24,742.42a41.36,41.36,0,0,0,1.41,5c.6,1.71,1.4,3.81,2.43,6.27.34.84.54,1.35.61,1.53a4.73,4.73,0,0,1,.22,1.48c0,.65-.18,1-.56,1a2.74,2.74,0,0,1-1.24-.9,15.4,15.4,0,0,1-1.58-1.92c0,1.34.11,3.16.33,5.35s.46,4.54.7,7a66.87,66.87,0,0,1,.36,7c.14,1.49.24,2.73.3,3.8s.09,2.19.09,3.4,0,2.42-.13,3.56-.17,2.39-.26,3.76a11.07,11.07,0,0,1-.32,2.45c-.21.88-.47,1.8-.76,2.68a10.55,10.55,0,0,1-1,2.18,5.77,5.77,0,0,1-1.2,1.4c-.26,0-.44-.11-.48-.31a4.64,4.64,0,0,1-.1-1.2c0-.75.08-1.73.08-3,0-2.74-.11-6.19-.33-10.38s-.55-8.7-.89-13.53c-.21-3.14-.44-5.83-.64-8s-.35-3.92-.48-5.12c-.2-2-.38-3.62-.53-4.63a6.71,6.71,0,0,0-.24-1.09c-.21-.57-.36-1-.43-1.27Z"/><path d="M424.2,787.5a5,5,0,0,0,1.84,3.42,8,8,0,0,0,4.52,1,29.92,29.92,0,0,0,8-.86c2.11-.71,4-1.33,5.69-1.85a29.25,29.25,0,0,0-2.7-6.23,52,52,0,0,0-4.62-6.51l-.26.77a8.71,8.71,0,0,1-2.91-2.94,8.12,8.12,0,0,1-1.28-3.17,11.79,11.79,0,0,1,.66-3.9,8.39,8.39,0,0,1,1.57-2.84,36,36,0,0,1,5.66,6.53,51.22,51.22,0,0,1,4.17,6.89,39.61,39.61,0,0,1,2.85,6.89,14.78,14.78,0,0,1,.61,4L447.5,795q-1.17,1.46-8.06,2.89a56.23,56.23,0,0,1-10.83,1.28,6.38,6.38,0,0,1-4.62-1.64,5.44,5.44,0,0,1-1.75-4.21,25.24,25.24,0,0,1,.67-4.68A1.71,1.71,0,0,1,424.2,787.5Z"/><path d="M466.44,798H456c0-4.85-.12-10.06-.34-15.66s-.61-11.28-1.17-17a142.85,142.85,0,0,0-2.2-16.22l4.42-6.65a124.91,124.91,0,0,1,2,12.7,114.9,114.9,0,0,1,.75,13.21c0,1.36,0,3.35.06,6s.1,5.68.18,9,.12,5.66.12,7h6.61"/><path d="M459.83,790.36h6.47c2.81,0,4.77-.05,5.82-.14a11.79,11.79,0,0,0,4.45-1,16.78,16.78,0,0,0-1.3-3.79,26.07,26.07,0,0,0-2.08-3.66c-1-1.51-2.06-3-3.07-4.56l3.58-6.88a21.55,21.55,0,0,1,4,6.13,59.52,59.52,0,0,1,2.13,6,30.6,30.6,0,0,1,.71,4,35.42,35.42,0,0,1,.21,3.77m-.93,5.32c-1.74,1.42-9.22,2.46-10.86,2.46h-4.65m3.91,3.71,6.37,4.22-3.76,5.72-6.52-4.4Z"/><path d="M482.86,794.41l-3.5,1.23c1.37,1.36,4.78,2.07,7,2.07a64.73,64.73,0,0,0,6.82-.15,56.15,56.15,0,0,0,7-1.37,69.5,69.5,0,0,0,8.83-2.87c4.84-1.27,7.87-1.89,9-1.89a10.33,10.33,0,0,1,2.34.31c.33-.55.95-1.72,1.84-3.47s1.38-2.84,1.51-3.16a1.19,1.19,0,0,0-.49-1,1.83,1.83,0,0,0-1.08-.4,1.4,1.4,0,0,1-.28.06l-.2,0c-1.85.32-3.9.72-6.16,1.27l-5.1,1.28a15.71,15.71,0,0,1-3,.55h-.29a13.25,13.25,0,0,1-6.18-2.74,15.57,15.57,0,0,1-3.92-4.38,7.48,7.48,0,0,1-1.35-3.5,15.6,15.6,0,0,0,1.83-.1c.8,0,1.39-.05,1.73-.05a65,65,0,0,1,6.68.41l2.56.31,1,.13a6.83,6.83,0,0,0,5.28-2.4,12.91,12.91,0,0,0,2.76-7,1.32,1.32,0,0,0-.2-1c-.18-.34-.37-.49-.61-.49s-.33.13-.48.39a3.1,3.1,0,0,0-.37,1.14c-.14.63-1.33,1.64-3.55,2.93a6.86,6.86,0,0,1-1.51.72,5.32,5.32,0,0,1-1.57.22l-.88-.11a33.51,33.51,0,0,1-4.78-.33c-1.75-.2-3.37-.44-4.85-.64a5.67,5.67,0,0,0-3.82,1.38,20.56,20.56,0,0,0-4,6,7,7,0,0,0-.84,2.72,7.68,7.68,0,0,0,1.58,4.65,15.66,15.66,0,0,0,5.72,4.44,5.55,5.55,0,0,1-1.91.55,21,21,0,0,1-2.66.14h-1c-.32,0-10-.67-11.14-.56,0,0-2.38-2.2-4.07-.59s-12.16,1.15-12.16,1.15-1.61,7.12,1,7.59,9.63-.84,10.11-.94"/><path d="M575.16,798h-3.55a6.72,6.72,0,0,1-4.73-1.56c-1.16-1.1-1.73-2.79-1.73-5.06a25.7,25.7,0,0,1-6.53,4.19,13.27,13.27,0,0,1-5.08,1.46c-2.11,0-3.6-.52-4.48-1.5a5.77,5.77,0,0,1-1.12-3.84,24.49,24.49,0,0,1,.58-6.57,10.75,10.75,0,0,1,4.47-5.34,58.33,58.33,0,0,1,5.2-3c.95-.5,1.87-1,2.78-1.49a6.5,6.5,0,0,0,1.94-1.42,1.85,1.85,0,0,0,.4-1l-.3-1.41,2.41-6.17c1.14.67,2.05,3.41,2.74,8.27A81.38,81.38,0,0,1,569,785a29.64,29.64,0,0,0,.11,3.29c.2,1.36.85,2.05,2,2.05h4.08m-18.89-28.08-6.09-4.54,3.94-5.61,4.69,3.37,2.22-3.37,6.11,4.57-3.83,5.52-4.5-3ZM565.15,787l-.59-9.5a17.9,17.9,0,0,1-3.15,3.46,12.32,12.32,0,0,1-3.63,2.11,18.31,18.31,0,0,0-4.4,2.5c-1.85,1.37-2.86,2.48-3,3.37v.2c0,.53.56.89,1.69,1.06a19,19,0,0,0,3.09.17,18.33,18.33,0,0,0,5.44-.75A13.83,13.83,0,0,0,565.15,787Z"/><path d="M574.51,790.45l4-.09h1a21.14,21.14,0,0,0,2.65-.14,5.5,5.5,0,0,0,1.9-.55,15.66,15.66,0,0,1-5.72-4.44,7.76,7.76,0,0,1-1.59-4.65,6.76,6.76,0,0,1,.86-2.72,20.16,20.16,0,0,1,4.05-6,5.57,5.57,0,0,1,3.8-1.38c1.5.2,3.08.44,4.86.64a33.36,33.36,0,0,0,4.79.33l.85.11a5.25,5.25,0,0,0,1.58-.22,7.68,7.68,0,0,0,1.53-.72c2.22-1.29,3.37-2.3,3.54-2.93a2.94,2.94,0,0,1,.36-1.14c.18-.26.34-.39.49-.39s.42.15.64.49a1.82,1.82,0,0,1,.2,1,12.92,12.92,0,0,1-2.8,7,6.77,6.77,0,0,1-5.26,2.4l-1-.13-2.6-.31a64.84,64.84,0,0,0-6.67-.41c-.37,0-.92,0-1.71.05a16.28,16.28,0,0,1-1.84.1,7.3,7.3,0,0,0,1.33,3.5,16.37,16.37,0,0,0,3.92,4.38,13.24,13.24,0,0,0,6.19,2.74h.27a15.94,15.94,0,0,0,3.08-.55l5.1-1.28c2.24-.55,4.29-1,6.13-1.27l.22,0a2.07,2.07,0,0,0,.24-.06,1.75,1.75,0,0,1,1.09.4,1.17,1.17,0,0,1,.5,1c-.13.32-.62,1.41-1.52,3.16s-1.51,2.92-1.83,3.47a10.24,10.24,0,0,0-2.32-.31c-1.14,0-4.14.62-9,1.89a72.45,72.45,0,0,1-8.81,2.87,56.64,56.64,0,0,1-7,1.37,31.62,31.62,0,0,1-4.54.39"/><path d="M628.18,798H617.74c0-4.85-.12-10.06-.33-15.66s-.6-11.28-1.16-17a147.57,147.57,0,0,0-2.2-16.22l4.43-6.65q1.26,6.23,2,12.7a122.15,122.15,0,0,1,.71,13.21c0,1.36,0,3.35.08,6s.09,5.68.16,9,.11,5.66.11,7h6.64Z"/><path d="M627.76,790.45a28.72,28.72,0,0,0,4.69-.48,14.8,14.8,0,0,0,2.4-1.58,15.31,15.31,0,0,0,2.19-2.83,10.94,10.94,0,0,0,1.48-3.69c.2.22.51.53.84.86s.64.58.74.69a17,17,0,0,1,4.22-7.47,6.29,6.29,0,0,1,4.12-2.09h.36a7.6,7.6,0,0,1,3.82,1.75,16.19,16.19,0,0,1,2.39,3.28,21.85,21.85,0,0,1,2.07,5,18.07,18.07,0,0,1,.9,5.27v1.65h5.44a55.27,55.27,0,0,0,10.37-.8,35.9,35.9,0,0,0,9.66-3.69c-.91-.72-2-1.66-3.24-2.85a30.41,30.41,0,0,0-2.76-2.39,12,12,0,0,0-3.27-1.73l-.46-.11a1.2,1.2,0,0,0-.35,0h-.32a2.13,2.13,0,0,0-1.63.62,2.61,2.61,0,0,0-.79,1.55,41.34,41.34,0,0,0-5,.24,5.79,5.79,0,0,0-2.79.88v-.6a7.69,7.69,0,0,1,1.77-4.7,5.35,5.35,0,0,1,2.9-2.33,8,8,0,0,1,2.59-2.3,7.58,7.58,0,0,1,3.31-.73c1.21,0,3,.8,5.38,2.34a61.94,61.94,0,0,1,7.9,6.32,21,21,0,0,0,6.35,3.87,46.09,46.09,0,0,0,7.9,2.24c-.75,1.54-1.29,2.64-1.7,3.4a32.13,32.13,0,0,1-2,3.52,25,25,0,0,0-4.39-1.45,18.27,18.27,0,0,0-3.82-.45,12.63,12.63,0,0,0-2.6.24,11.51,11.51,0,0,0-2.47.78c-2.08.88-4.8,1.93-8.13,3.1-2.85,1-5.1,1.76-6.64,2.27a17.36,17.36,0,0,1-2.58.27c-1.06.06-2,.08-2.8.08-.53,0-1,0-1.39,0s-.72,0-1-.06a5.51,5.51,0,0,1-4.49-2.24l-.08.34a4,4,0,0,1-.63.85,3.94,3.94,0,0,1-1,.71c-2.54-.35-4.42-.66-5.57-.94a19.32,19.32,0,0,1-5.49-2.2,16.85,16.85,0,0,1-4.88-4.83,15.67,15.67,0,0,1-5.63,6.07,10.71,10.71,0,0,1-5.5,1.9h-2.14m27.7-6.85.65,0a18.43,18.43,0,0,0-1-3.56c-.43-1-.85-2.08-1.28-3.13A8.77,8.77,0,0,0,650.7,782a4,4,0,0,0-3-1,4.53,4.53,0,0,0-2.13.88,10.87,10.87,0,0,0-3.23,3.48,25.47,25.47,0,0,0,5.62,3.76C650.5,790.46,652.43,791.1,653.79,791.1ZM673.73,802l6.54,3.8-4.14,5.81-6.72-4Z"/><polygon points="465.96 697.38 462.05 688.47 200.64 745.35 200.64 755.1 465.96 697.38"/><polyline points="462.05 688.47 722.27 745.35 722.27 755.1 462.15 698.31"/><polygon points="722.86 837.08 201.06 837.08 201.06 826.47 722.86 826.49 722.86 837.08"/><path d="M265.35,757.92s3.42-2.1,4.32,1c0,0-.83,12.46,0,16A42,42,0,0,1,265.35,757.92Z"/><path d="M203.83,867c1.12-3.25,2.54-5.37,5.1-5.37,2.23,0,4.06,1.51,5.65,4.1a9.45,9.45,0,0,1,1.54,4.54,9.29,9.29,0,0,1-1.52,4.11,56.77,56.77,0,0,0-7.11-.59,4.34,4.34,0,0,0-3.12,1c.36,4.15,3.15,11.4,3.15,13.33a19.4,19.4,0,0,1-.81,4.57l-.56,0c-.73-5-4.3-12.28-4.3-16.09a10.67,10.67,0,0,1,.61-3.2,9.8,9.8,0,0,1,1.79-3.13Zm2.2,2.2a6.53,6.53,0,0,1,2.34-.39,25.87,25.87,0,0,1,4.2.44l.05-.17c-1.51-2-3.12-3.18-4.86-3.18a3.21,3.21,0,0,0-1.27.22v.34a11.27,11.27,0,0,1-.12,1.69l-.42,1Z"/><path d="M235.3,870.34c-.57,2.17-1,4.42-1.42,5.91H219.35v-.88c1.93-1.85,4.05-3.81,5.83-5.88,2.57-2.91,4-5.7,4-8.33s-1.27-4.25-3.76-4.25c-2.3,0-3.74,1.51-4.91,3.22l-1.08-.85,2.35-3.38a7.52,7.52,0,0,1,5.47-2.24c3.59,0,6.6,2.39,6.6,6.37,0,2.69-1.37,4.86-5.06,8.36l-4.23,4h5.69c2.28,0,2.52-.1,3.91-2.42Z"/><path d="M245.51,853.66c6,0,8,6.32,8,11.5s-1.93,11.51-8,11.51-8-6.35-8-11.48,2-11.53,8-11.53Zm-.12,1.49c-2.44,0-3,5.15-3,9.89s.74,10.14,3.13,10.14,3-5.23,3-10.09c0-5-.76-9.94-3.1-9.94Z"/><path d="M271.8,870.34c-.56,2.17-1,4.42-1.42,5.91H255.85v-.88c1.93-1.85,4-3.81,5.84-5.88,2.56-2.91,3.95-5.7,3.95-8.33s-1.27-4.25-3.76-4.25c-2.29,0-3.74,1.51-4.91,3.22l-1.07-.85,2.34-3.38a7.54,7.54,0,0,1,5.47-2.24c3.59,0,6.6,2.39,6.6,6.37,0,2.69-1.37,4.86-5.06,8.36l-4.22,4h5.69c2.27,0,2.51-.1,3.91-2.42Z"/><path d="M287.24,870v2.13c0,2.22.25,2.56,3,2.88v1.22H279.3V875c3.25-.32,3.35-.83,3.35-3v-2h-9.26v-1.49c4-5.44,7.79-10.5,11.26-14.65h2.59V868h3.35v2Zm-4.59-11.36h-.07c-1.66,2.15-4.06,5.57-6.48,9.31h6.55Z"/><path d="M311.43,869.39h-9l.52-2.54h9Z"/><path d="M321.06,876.25V875c2.93-.22,3.25-.76,3.25-3.3V858.89c0-1.89-.15-2.11-1.57-2.2l-1.95-.1v-1.08c2.32-.36,5-1,8.28-1.85v18.05c0,2.44.24,3.08,3.2,3.3v1.24Z"/><path d="M344.83,853.66c5.27,0,7.94,4.13,7.94,9a13.52,13.52,0,0,1-9,13,24.41,24.41,0,0,1-6.18,1.17l-.22-1.32a12.18,12.18,0,0,0,10.11-9l-1.83.92a4.24,4.24,0,0,1-2.1.64c-4.3,0-7-3-7-6.72a8.08,8.08,0,0,1,8.3-7.69Zm-.73,1.41c-2,0-2.81,2.5-2.81,4.82,0,3,1.71,5.69,4.37,5.69a5.79,5.79,0,0,0,2-.42,18,18,0,0,0,.17-2.68c0-3.47-.93-7.41-3.74-7.41Z"/><path d="M368.28,870v2.13c0,2.22.25,2.56,3,2.88v1.22H360.35V875c3.24-.32,3.34-.83,3.34-3v-2h-9.26v-1.49c4-5.44,7.8-10.5,11.26-14.65h2.59V868h3.35v2Zm-4.59-11.36h-.07c-1.66,2.15-4.06,5.57-6.47,9.31h6.54Z"/><path d="M381.33,853.66c5.28,0,7.94,4.13,7.94,9a13.52,13.52,0,0,1-9,13,24.32,24.32,0,0,1-6.18,1.17l-.22-1.32a12.18,12.18,0,0,0,10.12-9l-1.84.92a4.24,4.24,0,0,1-2.1.64c-4.3,0-7-3-7-6.72a8.09,8.09,0,0,1,8.31-7.69Zm-.73,1.41c-2,0-2.81,2.5-2.81,4.82,0,3,1.71,5.69,4.37,5.69a5.79,5.79,0,0,0,2-.42,16.78,16.78,0,0,0,.17-2.68c0-3.47-.93-7.41-3.74-7.41Z"/><path d="M372.24,918.73l4.52,9L446,920.09q16-35,32.52-69.91H418.28C403.36,873,388.11,895.92,372.24,918.73Z"/><path d="M634.56,509.88H357.31c-5,28-9.5,63.77-18.09,115.78h22.62c19.44-39.35,25.77-44.78,71.45-44.78H577.12c-18.8,34.81-38.71,70.63-59.61,107l35.36,8c29.29-59.75,58.74-119.2,87.57-178.26Z"/><path d="M694.83,708.42c60.62,0,99.06,38.45,99.06,98.15,0,47-19.91,83.22-62,83.22-37.54,0-71.92-15.47-88.31-30.33-9.19-8.32-16.11-12.09-26-5.47-12.21,9-19.33,16.32-19.33,27.17,0,9.05,3.42,16.28,17.9,27.59,14.92,11.76,43.41,19,69.64,19C726,927.78,774,909.69,812.43,883c46.58-32.56,66.93-71,66.93-111.71,0-56.08-48.39-109.9-134.32-109.9-17.19,0-53.82,8.14-88.2,21.71l18.55-102.22H847.25l22.17-64.67-3.62-6.33H651l-28.8,201.58,18.91,4.26C655.86,711.91,675,708.42,694.83,708.42Z"/></g></g></svg>
