<svg id="Layer_1" data-name="Layer 1" xmlns="http://www.w3.org/2000/svg" viewBox="0 0 1080 1080"><defs><style>.cls-1{fill:#1e398c;}.cls-2{fill:#c3161c;}.cls-3{fill:#0597b0;}.cls-4{fill:white;}</style></defs><title>new logo </title><path class="cls-1" d="M522.38,336.52,575.21,367a14.36,14.36,0,0,0,14.32,0l52.83-30.5a14.35,14.35,0,0,0,7.16-12.4v-64.7A14.32,14.32,0,0,0,642.36,247l-52.83-30.51a14.38,14.38,0,0,0-14.32,0L522.38,247a14.34,14.34,0,0,0-7.16,12.39v64.7a14.37,14.37,0,0,0,7.16,12.4"/><path class="cls-1" d="M642.36,413.81l-52.83-30.5a14.36,14.36,0,0,0-14.32,0l-52.82,30.5a14.35,14.35,0,0,0-7.16,12.4V630.76a80.4,80.4,0,0,0,8.49-2.18,101,101,0,0,1,3.4-21.28c3.67-14.14,9.27-28,18.09-39.73a82,82,0,0,1,17.63-17.23,17.62,17.62,0,0,1-9.69-6.66c-6.34-8.56-7.07-21.94-4.94-32,2.55-12.09,7.41-23,17.53-31,8.64-6.81,19.79-8.86,30.54-8.06,1.64.13-1.56,11.46-1.85,12.39-.51,1.68-3.07,12-5.39,11.3-11.07-3.46-20.58-.23-24.9,4.14a21.12,21.12,0,0,0,14.79,36.2c10.81,0,22.88-13.68,25.33-17.2,2.55-3.67,1.61,2.31,1.36,3.75a64,64,0,0,1-4.89,15.51C595,551.27,584.5,558,572.61,564.18c-10.7,5.54-20.54,11.67-28.68,20.71a63.07,63.07,0,0,0-8.78,12c-3.89,7.15-3.45,16.37-3.18,18.93a51.76,51.76,0,0,0,1.73,8.72A98.91,98.91,0,0,0,559.43,606,104.69,104.69,0,0,0,570,593.89c.68-.91,1.33-1.84,2-2.76l.13-.18c.21-.33.44-.66.64-1l.15-.21c.25-.55.5-1.09.78-1.63s2.06-4.84,3.29-5c2.94-.26.07,7.26-.41,8.64-6.09,17.21-19,34.8-36.64,47.15,11.51,19.08,30.78,23.69,51.89,18.86,15.48-3.54,38.68-17.58,40.81-26.75,5.62-24.26-27.51-36.09-46.91-14.12-1.05,1.18-1-1.24-1-1.62-.12-2.38.75-5,1.35-7.32,1.21-4.67,2.56-10.39,5.69-14.19,8.18-9.91,22.8-13.92,34.54-8.08,12.14,6,16.33,19,15.72,32-1,20.64-15.51,49-51.34,58.07-13.11,3.32-29.78,3.16-42.35-2.45a40.39,40.39,0,0,1-22.57-26.18,89.42,89.42,0,0,1-8.91,3.65l-1.6.53V719H649.52V426.21a14.35,14.35,0,0,0-7.16-12.4M585.17,622.47c.9.7.31,2.89.19,3.85a54.57,54.57,0,0,1-2,8.53c-.26.89-4.22,12.21-5.39,11.3a32.18,32.18,0,0,0-10.36-5.41c-.92-.29-.28-3.19-.2-3.86a54.57,54.57,0,0,1,2-8.53,56,56,0,0,1,3.08-8.21c0-.06,1.47-3.35,2.32-3.09a32.41,32.41,0,0,1,10.36,5.42"/><path class="cls-2" d="M715.08,288.89l-46.39-26.78a5.06,5.06,0,0,0-7.6,4.38v57.63a25.86,25.86,0,0,1-12.94,22.41l-43.43,25.08a4.11,4.11,0,0,0,0,7.11l43.43,25.07a25.89,25.89,0,0,1,12.94,22.42V719h54.27a7,7,0,0,0,7-7V301.42a14.48,14.48,0,0,0-7.24-12.53"/><path class="cls-3" d="M488.47,654.81A26.09,26.09,0,0,1,467.29,641c-3-5.61-3-11.25-3.19-17.2-.63-17.84-.75-194.5-1-212.35-.3-22.4-.57-44.81-1-67.21-.17-8.75-.35-17.5-.66-26.25-.07-1.71-.13-3.42-.21-5.14l-.09-1.91c0-.25,0-.37,0-.42s0-.21,0-.38a124.31,124.31,0,0,0-2.66-20.55,11.26,11.26,0,0,1,.25-5.22l-93.76,54.13A14.46,14.46,0,0,0,357.68,351V662.43a14.54,14.54,0,0,0,2.83,1.22c7.25,2.19,14.89-1.65,21.18-4.66,19-9.07,41.54-23.78,54.39-42.82-30.79-21.11-47.78-38.35-54.41-59.82-1.11-3.6,4.62-18.12,5.88-21.45.21-.59,5.07-11.12,5.62-8.41,6.26,30.82,44,70.2,59.27,77.65,2.25,1.09-.95,10.08-1.45,11.87-2,7.37-1.89,8.38-6.6,14.1a204.58,204.58,0,0,1-32.52,31.35A208.33,208.33,0,0,1,379,682.34c-5.89,3-13.94,7.46-21.36,8.06V712a7,7,0,0,0,7,7h139V654.16a61.73,61.73,0,0,1-15.19.65"/><path class="cls-3" d="M473.79,603.68c0,1.33.09,2.65.15,4,0,.49.05,1,.07,1.47,0,0,0,.08,0,.11s0,.09,0,.15a24.41,24.41,0,0,0,2,8.15c3.39,7.63,10.87,13.43,21.17,14.38a54.81,54.81,0,0,0,6.43.18V426.21a25.91,25.91,0,0,1,12.94-22.42L560,378.72a4.11,4.11,0,0,0,0-7.12L516.6,346.53a25.89,25.89,0,0,1-12.94-22.41v-57a5.06,5.06,0,0,0-7.59-4.39l-26.19,15.12c2.38,16.58,1.69,33.77,2,50.25.72,38.92.61,236.66,1.9,275.56"/><path class="cls-4" d="M321,775.35l0-.13c-.2-.46-2.74-2.69-7.62-6.72a1.46,1.46,0,0,0-.59,0q-4.53,4-5,7l0,.13q7.2,6.51,7.89,6.63c2-1.07,3.76-3.41,5.35-7"/><path class="cls-4" d="M416.66,780.31a55.46,55.46,0,0,1-14.7-5.84q-6.52-3.79-10.44-5.92a27.71,27.71,0,0,0-6.79-2.79l-.17-.09a12.37,12.37,0,0,0-1.73-.31,16.49,16.49,0,0,0-2.39-.17,14.08,14.08,0,0,0-9.2,3.4,39.73,39.73,0,0,0-5.26,7l.93.79a9.71,9.71,0,0,1,6.15-2.12,13.79,13.79,0,0,1,1.9.13,10.45,10.45,0,0,1,1.33.27l1.23.31q3,.75,12.17,5.48-5.49,1.2-9.73,2.25a78.31,78.31,0,0,0-9,2.88,26.41,26.41,0,0,0-7.16,4.14q-3.4,2.71-7.12,9.26a15,15,0,0,1-8.41,2.83h-4a12.21,12.21,0,0,1-8.5-3.58,110.51,110.51,0,0,0-2.34-11.9L332.2,786l-6.41,9.59q4,14.6,4,19.28v.09a50.48,50.48,0,0,1-16.9,3.18h-.52a29.75,29.75,0,0,1-8.5-1.1q-8.84-2.7-8.84-11.1a5,5,0,0,1,.05-.75,56.25,56.25,0,0,1,2.16-11.1l-2.39-.53q-5.56,13-5.57,19.63v1.42a13.42,13.42,0,0,0,1.55,6.37q4.81,7.51,15.87,7.51h2.26a45.39,45.39,0,0,0,23.39-7.16q3.15-4,3.89-11.5a21.66,21.66,0,0,0,7.25,2H347q3.94-.45,10.4-7.39a2.59,2.59,0,0,1,.83,1.42q5.49,7.2,12.87,7.21a11.06,11.06,0,0,0,6.24-1.69q4.95-4.36,4.95-9.64v-.7q0-6.49-7.07-9.91c2-.56,4.79-1.29,8.44-2.21a53.07,53.07,0,0,1,12.74-1.37,45.76,45.76,0,0,1,5.39.31c4.72,1.27,7.84,2,9.38,2.26q4.32-6.11,5.92-8.58Zm-39.18,24.41c0,.2-.09.31-.26.31h-1.55a11.47,11.47,0,0,1-4.38-.89,15.06,15.06,0,0,1-8.36-6.63c.94-.09,1.65-.13,2.13-.13h1.28a15.43,15.43,0,0,1,6.63,1.81,10.43,10.43,0,0,1,4.51,5.53"/><path class="cls-4" d="M349,782.39a24.52,24.52,0,0,1-.26,3.4l.48.31h0a14.68,14.68,0,0,0,2.74-9v-1.24a31.07,31.07,0,0,0-.71-5.91,40.17,40.17,0,0,0-3.23-8.82h-.48l-2.3,6.15v.57A30.52,30.52,0,0,1,349,782Z"/><path class="cls-4" d="M436.09,751.46l.31-1.64-1.1-.62q-4.47,5.79-4.47,10.48t4.55,7.52q5,23.92,5,31.26h-5.09q-11.1-1.23-12.47-12.69l-1.45,0a35.16,35.16,0,0,0-3.59,8.93q.36,6.23,6.68,10.57l-.93,2.16Q415.57,821,400.72,821a31.86,31.86,0,0,1-9.2-1.77l-.53,1.95q13.22,7.73,18.39,8.09a19.15,19.15,0,0,0,4.6-.62q1.42-.23,5.88-5.22c4.18-5.45,7-10.42,8.5-14.9H442a38.35,38.35,0,0,0,4.29-17.11,104.27,104.27,0,0,0-2.12-18.53l1.11.53.48-.13,4.34-8.71v-.71l-5.62-3.72q-8.35-4.82-8.36-8.66"/><path class="cls-4" d="M462.71,754.47,456.8,764.6q2.93,33.76,2,46.3l1.54.11a48.51,48.51,0,0,0,5.75-14q.69-9.78-1.87-42.38Z"/><path class="cls-4" d="M486.78,774.76a3.17,3.17,0,0,0-2.3,1.11q-1.38,1.85-1.38,6.45v1.15l.67.4h.71q4,.23,7.69,5.48t3.89,9.11H483.33a10.83,10.83,0,0,1-6-1.55h-1a51.49,51.49,0,0,0-2.12,9.16q.52,2.2,3.71,2.43h18.8a25.16,25.16,0,0,0,4-13.71,26.2,26.2,0,0,0-3.06-10.92q-5.83-9.11-10.87-9.11"/><path class="cls-4" d="M531.83,814.61l-.26.13q-3.81,4.9-3.81,7.65a1.18,1.18,0,0,0,.13.4q2.26,1.59,8.5,5.13h.39a14.91,14.91,0,0,0,4-7.78V820q-.79-.84-8.62-5.35Z"/><path class="cls-4" d="M603,794.29q-9,3-25.69,5.39a21.59,21.59,0,0,1-6.33-4.2q-6.36-5.25-8.05-11.58a24.1,24.1,0,0,1,9.82-2.17h.14q5,0,17.37,2.17l1.06-1.37q-9.72-8.89-15.21-9.47a17.71,17.71,0,0,0-12.91,5.27q-5,6.27-5,11.4T563.61,801H551.36a11,11,0,0,1-8.8-5.22q-2.87-4.65-4-4.65c-.79,0-1.74.7-2.83,2.08-3.12,5.3-8.88,7.79-15.21,7.79-3.8,0-6.43-1.33-7.87-4s-1.6-7.71-2.18-15.35,0-18.87-1-29.36h-1.15l-6.06,6.45c1,10.26.91,22.08,1.34,28A78.77,78.77,0,0,0,505.33,800a14.11,14.11,0,0,0,5.79,8.22,19.55,19.55,0,0,0,8.62,2.79,19,19,0,0,0,11-3.28,17.38,17.38,0,0,0,5.75-6.54q4.38,8.67,12.78,9.86c3.59.6,22.28-.6,29.19-2.21s13.93-3,20.47-4.77l4.51-9.25Z"/><path class="cls-4" d="M619,770.45c.46-.09,1.69-1.69,3.69-4.82q7.22,4.47,8.12,4.47h.35c2.37-3,3.56-5.39,3.56-7.25v-.35q0-.78-8.38-5.38-1.48,0-3.43,4.86-7.77-4.86-8.73-4.86a15.57,15.57,0,0,0-3.91,7.68c.47.7,3.37,2.58,8.73,5.65"/><path class="cls-4" d="M670.93,799.68a21.58,21.58,0,0,1-6.21-4.12q-6.26-5.17-7.9-11.38a23.79,23.79,0,0,1,9.64-2.12h.13q4.9,0,17.06,2.12l1-1.34q-9.56-8.73-14.93-9.29a17.43,17.43,0,0,0-12.68,5.16q-5,6.18-5,11.2,0,5.18,5.38,11h-6.89q-3-.21-7.51-4.3-4.2-4.29-6.51-17.54-.78-8.16-1.13-8.16l-.26.13q-3.35,4.51-3.34,8v1.57l.13.26c-.55.34-.83.58-.83.69q-14.67,6.35-16.11,8.77a28.85,28.85,0,0,0-6.12,14.07V805c0,2.14,2,3.22,6.12,3.22q11.81,0,17.5-4.17a11.79,11.79,0,0,0,2.78-5.21h.13q4.6,11.94,14.89,11.94h2.43v-.09c9.09-.11,11.94-.81,19.27-2.08q10.46-2.08,20.1-4.69l4.43-9.08-.44-.47q-8.85,2.91-25.22,5.29m-50.44-1.39H618a17.46,17.46,0,0,1-3.9-.43v-.13a9.47,9.47,0,0,1,2.64-1.78q9.46-3.65,12.64-5.86a16.56,16.56,0,0,0,3.21-4.17,55.21,55.21,0,0,0,1.65,9.16,27.07,27.07,0,0,1-13.72,3.21"/><path class="cls-4" d="M766.42,803.28a1.08,1.08,0,0,0-.56.26c-2.38,3.07-3.56,5.54-3.56,7.42v.13q.47.57,8.25,5h.34l.92-.69q2.87-4.12,3.12-6.86c-.12,0-.17-.08-.17-.22s-2.84-1.92-8.34-5.08"/><path class="cls-4" d="M787.79,785.19a54.84,54.84,0,0,1-14.44-5.72c-4.26-2.5-7.68-4.43-10.24-5.82a27.71,27.71,0,0,0-6.66-2.74l-.18-.09a13.37,13.37,0,0,0-1.69-.3,15.92,15.92,0,0,0-2.34-.17,13.81,13.81,0,0,0-9,3.34,38.72,38.72,0,0,0-5.16,6.86l.91.78a9.46,9.46,0,0,1,6-2.08,13.37,13.37,0,0,1,1.87.13,10,10,0,0,1,1.3.26l1.22.3q3,.73,11.94,5.38c-3.59.79-6.77,1.52-9.55,2.22a77.36,77.36,0,0,0-8.82,2.82,26,26,0,0,0-7,4.06q-3.35,2.67-7,9.1c-1.08,1.61-2.56,4-9.41,3.6a10.52,10.52,0,0,1-7.61-5c-1.45-2.65-1.6-7.71-2.18-15.34s0-24.22-1-34.71h-1.15l-6.06,6.44c1,10.26.91,27.44,1.33,33.4a79.78,79.78,0,0,0,1.75,13.18,14.08,14.08,0,0,0,5.8,8.22c8.33,4.84,14.46,1,19.22-4.42,4.07,6,8.62,8.47,13.45,8.47a11,11,0,0,0,6.13-1.65q4.86-4.31,4.86-9.47v-.69q0-6.39-6.95-9.73c1.94-.55,4.7-1.27,8.3-2.17a52.16,52.16,0,0,1,12.5-1.34,46.42,46.42,0,0,1,5.3.3c4.62,1.25,7.7,2,9.2,2.21q4.25-6,5.82-8.42Zm-38.46,24c0,.2-.09.3-.26.3h-1.52a11.26,11.26,0,0,1-4.3-.86,14.82,14.82,0,0,1-8.21-6.52c.93-.08,1.62-.12,2.09-.12h1.25a15.21,15.21,0,0,1,6.52,1.77,10.33,10.33,0,0,1,4.43,5.43"/><rect class="cls-4" x="292.47" y="843.76" width="3.06" height="21.38"/><path class="cls-4" d="M319,855.94a5.36,5.36,0,0,1,1.06,3.43,4.94,4.94,0,0,1-2.09,4.28,10.44,10.44,0,0,1-6.09,1.49h-10.2V843.76h9.59a9.47,9.47,0,0,1,5.67,1.47,4.76,4.76,0,0,1,2,4.06,5.26,5.26,0,0,1-.78,2.9,5.1,5.1,0,0,1-2.09,1.87,5.45,5.45,0,0,1,2.93,1.88m-14.26-9.7v6.84H311a6.41,6.41,0,0,0,3.63-.87,3.21,3.21,0,0,0,0-5.1,6.41,6.41,0,0,0-3.63-.87Zm10.93,15.57a3,3,0,0,0,1.31-2.69q0-3.57-5.22-3.57h-7v7.12h7a7.24,7.24,0,0,0,3.91-.86"/><path class="cls-4" d="M338.18,859.8H326.82l-2.35,5.34h-3.14L331,843.76h3l9.71,21.38h-3.2Zm-1.06-2.44-4.62-10.48-4.61,10.48Z"/><path class="cls-4" d="M346.68,843.76h9a13,13,0,0,1,6,1.35,9.85,9.85,0,0,1,4.08,3.77,11.44,11.44,0,0,1,0,11.15,9.92,9.92,0,0,1-4.08,3.77,13.11,13.11,0,0,1-6,1.34h-9Zm8.82,18.73a9.85,9.85,0,0,0,4.56-1,7.3,7.3,0,0,0,3-2.83,8.76,8.76,0,0,0,0-8.39,7.18,7.18,0,0,0-3-2.83,9.85,9.85,0,0,0-4.56-1h-5.77v16.07Z"/><path class="cls-4" d="M393.25,859.8H381.89l-2.35,5.34h-3.15l9.68-21.38h3l9.72,21.38H395.6Zm-1.07-2.44-4.62-10.48L383,857.36Z"/><polygon class="cls-4" points="401.74 843.76 404.79 843.76 404.79 862.49 416.37 862.49 416.37 865.14 401.74 865.14 401.74 843.76"/><rect class="cls-4" x="417.89" y="855.49" width="8.22" height="2.53"/><path class="cls-4" d="M445.1,865.14l-4.61-6.56c-.57,0-1,.06-1.34.06h-5.29v6.5h-3.05V843.77h8.34a9.85,9.85,0,0,1,6.53,2,6.73,6.73,0,0,1,2.38,5.47,7.16,7.16,0,0,1-1.22,4.21,6.94,6.94,0,0,1-3.48,2.54l5.07,7.17Zm-1.62-10.35a4.36,4.36,0,0,0,1.53-3.57,4.3,4.3,0,0,0-1.53-3.56,6.85,6.85,0,0,0-4.42-1.24h-5.2V856h5.2a6.85,6.85,0,0,0,4.42-1.25"/><path class="cls-4" d="M466.39,859.8H455l-2.36,5.34h-3.14l9.68-21.38h3l9.71,21.38h-3.2Zm-1.07-2.44-4.62-10.48-4.61,10.48Z"/><polygon class="cls-4" points="493.26 843.76 493.26 865.14 490.2 865.14 490.2 855.61 477.93 855.61 477.93 865.14 474.88 865.14 474.88 843.76 477.93 843.76 477.93 852.96 490.2 852.96 490.2 843.76 493.26 843.76"/><polygon class="cls-4" points="519.25 865.14 519.22 849.57 511.49 862.55 510.09 862.55 502.36 849.66 502.36 865.14 499.43 865.14 499.43 843.77 501.94 843.77 510.85 858.79 519.65 843.77 522.15 843.77 522.18 865.14 519.25 865.14"/><path class="cls-4" d="M542,859.8H530.61l-2.35,5.34h-3.15l9.68-21.38h3l9.72,21.38h-3.21Zm-1.07-2.44-4.61-10.48-4.61,10.48Z"/><polygon class="cls-4" points="568.84 843.76 568.84 865.14 566.34 865.14 553.51 849.2 553.51 865.14 550.46 865.14 550.46 843.76 552.97 843.76 565.79 859.71 565.79 843.76 568.84 843.76"/><path class="cls-4" d="M596.6,859.8H585.24l-2.35,5.34h-3.14l9.68-21.38h3l9.71,21.38H599Zm-1.06-2.44-4.62-10.48-4.61,10.48Z"/><path class="cls-4" d="M606.66,864.64a9.61,9.61,0,0,1-3.52-1.94l1.13-2.38a9.15,9.15,0,0,0,3.13,1.78,11.44,11.44,0,0,0,3.92.69,7.06,7.06,0,0,0,4-.9,2.77,2.77,0,0,0,1.32-2.4,2.37,2.37,0,0,0-.72-1.79,5,5,0,0,0-1.77-1.05c-.71-.24-1.7-.52-3-.82a31.85,31.85,0,0,1-3.89-1.16,6.4,6.4,0,0,1-2.54-1.79,4.78,4.78,0,0,1-1.06-3.25,5.54,5.54,0,0,1,.91-3.09,6.21,6.21,0,0,1,2.73-2.19,11.08,11.08,0,0,1,4.55-.83,14.31,14.31,0,0,1,3.73.49,9.73,9.73,0,0,1,3.14,1.4l-1,2.45a11,11,0,0,0-2.88-1.3,10.46,10.46,0,0,0-3-.44,6.58,6.58,0,0,0-3.89.94,2.91,2.91,0,0,0-1.3,2.45,2.32,2.32,0,0,0,.73,1.78,5,5,0,0,0,1.82,1.07,25.38,25.38,0,0,0,2.95.81,31.62,31.62,0,0,1,3.88,1.16,6.61,6.61,0,0,1,2.51,1.77,4.64,4.64,0,0,1,1.06,3.21,5.48,5.48,0,0,1-.92,3.07,6.19,6.19,0,0,1-2.78,2.2,11.48,11.48,0,0,1-4.58.81,14.62,14.62,0,0,1-4.66-.75"/><path class="cls-4" d="M625.39,864.64a9.58,9.58,0,0,1-3.53-1.94l1.13-2.38a9.24,9.24,0,0,0,3.13,1.78,11.44,11.44,0,0,0,3.92.69,7.06,7.06,0,0,0,4-.9,2.77,2.77,0,0,0,1.32-2.4,2.37,2.37,0,0,0-.72-1.79,5,5,0,0,0-1.77-1.05c-.7-.24-1.7-.52-3-.82a32.41,32.41,0,0,1-3.89-1.16,6.4,6.4,0,0,1-2.54-1.79,4.77,4.77,0,0,1-1-3.25,5.53,5.53,0,0,1,.9-3.09,6.21,6.21,0,0,1,2.73-2.19,11.08,11.08,0,0,1,4.55-.83,14.2,14.2,0,0,1,3.73.49,9.73,9.73,0,0,1,3.14,1.4l-1,2.45a11.07,11.07,0,0,0-2.87-1.3,10.58,10.58,0,0,0-3-.44,6.58,6.58,0,0,0-3.89.94,2.91,2.91,0,0,0-1.3,2.45,2.36,2.36,0,0,0,.73,1.78,5,5,0,0,0,1.82,1.07,25.38,25.38,0,0,0,3,.81,31.62,31.62,0,0,1,3.88,1.16,6.72,6.72,0,0,1,2.52,1.77,4.68,4.68,0,0,1,1.05,3.21,5.48,5.48,0,0,1-.92,3.07,6.19,6.19,0,0,1-2.78,2.2,11.45,11.45,0,0,1-4.58.81,14.52,14.52,0,0,1-4.65-.75"/><path class="cls-4" d="M646.35,864a10.56,10.56,0,0,1-4.08-3.93,11.3,11.3,0,0,1,0-11.18,10.61,10.61,0,0,1,4.08-3.92,12.64,12.64,0,0,1,11.64,0,10.53,10.53,0,0,1,4.06,3.91,11.49,11.49,0,0,1,0,11.21A10.53,10.53,0,0,1,658,864a12.64,12.64,0,0,1-11.64,0m10.06-2.37a7.7,7.7,0,0,0,3-3,8.64,8.64,0,0,0,0-8.4,7.74,7.74,0,0,0-3-2.94,8.31,8.31,0,0,0-4.23-1.07,8.5,8.5,0,0,0-4.26,1.07,7.75,7.75,0,0,0-3,2.94,8.71,8.71,0,0,0,0,8.4,7.71,7.71,0,0,0,3,3,8.61,8.61,0,0,0,4.26,1.07,8.42,8.42,0,0,0,4.23-1.07"/><path class="cls-4" d="M671.71,864a10.41,10.41,0,0,1-4-3.91,11.42,11.42,0,0,1,0-11.21,10.39,10.39,0,0,1,4.06-3.91,12,12,0,0,1,5.8-1.42,12.09,12.09,0,0,1,4.58.84,9.34,9.34,0,0,1,3.54,2.49l-2,1.92a8,8,0,0,0-6-2.53,8.71,8.71,0,0,0-4.3,1.07,7.63,7.63,0,0,0-3,3,8.69,8.69,0,0,0,0,8.39,7.69,7.69,0,0,0,3,3,8.71,8.71,0,0,0,4.3,1.07,8,8,0,0,0,6-2.57l2,1.93a9.43,9.43,0,0,1-3.55,2.5,12.08,12.08,0,0,1-4.6.86,11.88,11.88,0,0,1-5.79-1.42"/><rect class="cls-4" x="689.78" y="843.76" width="3.06" height="21.38"/><path class="cls-4" d="M712.62,859.8H701.26l-2.35,5.34h-3.15l9.68-21.38h3l9.72,21.38H715Zm-1.07-2.44-4.61-10.48-4.61,10.48Z"/><polygon class="cls-4" points="724.29 846.42 716.95 846.42 716.95 843.76 734.64 843.76 734.64 846.42 727.31 846.42 727.31 865.14 724.29 865.14 724.29 846.42"/><rect class="cls-4" x="737.72" y="843.76" width="3.06" height="21.38"/><path class="cls-4" d="M750.76,864a10.46,10.46,0,0,1-4.07-3.93,11.23,11.23,0,0,1,0-11.18,10.51,10.51,0,0,1,4.07-3.92,12.64,12.64,0,0,1,11.64,0,10.46,10.46,0,0,1,4.06,3.91,11.49,11.49,0,0,1,0,11.21A10.46,10.46,0,0,1,762.4,864a12.64,12.64,0,0,1-11.64,0m10.07-2.37a7.74,7.74,0,0,0,2.95-3,8.64,8.64,0,0,0,0-8.4,7.78,7.78,0,0,0-2.95-2.94,8.38,8.38,0,0,0-4.24-1.07,8.5,8.5,0,0,0-4.26,1.07,7.75,7.75,0,0,0-3,2.94,8.71,8.71,0,0,0,0,8.4,7.71,7.71,0,0,0,3,3,8.61,8.61,0,0,0,4.26,1.07,8.48,8.48,0,0,0,4.24-1.07"/><polygon class="cls-4" points="790.74 843.76 790.74 865.14 788.23 865.14 775.41 849.2 775.41 865.14 772.35 865.14 772.35 843.76 774.86 843.76 787.68 859.71 787.68 843.76 790.74 843.76"/></svg>
